<?xml version="1.0" encoding="UTF-8"?>
<svg id="Layer_1" data-name="Layer 1" xmlns="http://www.w3.org/2000/svg" viewBox="0 0 192.71 191.08">
  <defs>
    <style>
      .cls-1, .cls-2 {
        fill: #fff;
      }

      .cls-1, .cls-2, .cls-3 {
        stroke-miterlimit: 10;
      }

      .cls-1, .cls-3 {
        stroke: #231f20;
        stroke-width: 2px;
      }

      .cls-2 {
        stroke: #fff;
        stroke-width: 6px;
      }

      .cls-3 {
        fill: #b62eef;
      }
    </style>
  </defs>
  <g>
    <path class="cls-2" d="M153.66,90.46l-8.56,19.16c-8.7,14.6-22.32,27.31-39.24,31.18,6.4-6.51,12.56-13.15,17.5-20.89,8.53-13.36,12.55-25.92,11.49-41.92-.05-.76.39-1.47-.76-1.26l-8.66,7.11c-1.17,12.02-2.8,26.43-11.94,35.09.65-17.08-12.75-2.25-16.9,3.7-2.45,3.51-4.99,7.56-4.47,12.06-9.85,1.29-27.2,5.11-30.88,15.65-4.09,11.7-1.06,26.73,9.52,33.94-2.04-.04-4.93-2.03-6.88-3.29-15.03-9.78-22.8-24.34-16.25-42.21,7.96-21.73,35.75-28.29,43.11-52.5,7.02-23.1-10.03-40.83-31.83-27.76-1.16.69-4.83,3.05-4.89,4.18-.08,1.49.79,3.43.44,5.6-.76,4.71-6.25,7.89-9.11,11.23-3.17,3.71-9.58,13.93-3.58,17.27-.32,1.11-3.04.24-2.53,1.52.55,1.35,3.21,2.05,4.57,1.79-2.76,3.18-5.84.89-8.54.14-2.53-.7-5.43-.53-7.23-3.19l3.82-1.02c.61-1.03.07-2.99.29-4.29.96-5.51,7.15-6.44,6.89-14.2-.04-1.21-.97-3.07-.74-4.05.28-1.17,6.65-6.79,7.54-8.48-.53-.48-8.58,5.62-9.61,6.4-1.23.94-3.75,3.8-4.26,4.13-.68.44-3.19.57-4.61,1.24-1.9.9-3.44,2.83-4.92,4.28l-1.73-.78c-1.64,1.27-1.33,3.23-3.87,2.01-.1.83.2,1.56.49,2.31.34.9,2.3,2.88.74,3.27-2.26.56-5.99-2.9-6.32-2.52l.51,3.55c-.95.66-6.98-1.72-7.9-2.52-3.16-2.75-.33-9,2.63-11.13,1.5-1.08,4.98-3.11,6.27-4.41.72-.73.79-1.96,2.03-3.05.73-.64,2.3-1.17,2.45-1.37.3-.42,1.35-6.68,1.78-8.13,2.42-8.01,6.53-15.61,12.83-21.25.42,2.59-1.78,9.38,2.16,10.08,2.43.43,11.08-5.9,13.51-7.64,9.35-6.66,18.92-14.85,24.76-24.82l1.76,5.1c4.47,1.88,7.04-3.17,9.67-5.62,3.93-3.66,10.16-6.3,15.53-5.83-2.1,5.16-3.67,10.55-3,16.21.96,8.2,7.71,10.85,12.65,16.34,2.77,3.07,5.02,6.61,7.13,10.16-8,2.75-12.19,10.36-4.91,16.85,11.09,9.9,22.77-14.06,23.66-23.02,2.01-20.06-6.19-29.15-20.45-40.96-.45-.37-1.64-1.01-.1-.92,12.75,4.6,25.72,8.99,36.61,17.29,45.26,34.53,53.57,106.1,8.14,144.4-12.71,10.72-29.48,22.13-46.51,22.89l12.87-8.23c16.36-11.66,36.7-33.59,38.48-54.58.05-.55.37-1.9-.49-1.76-2.05,3.72-4.86,7.66-7.65,10.92-4.96,5.79-12.27,13.18-20.32,13.49,1.67-3.99,4.16-7.62,6.03-11.51,3.35-6.95,11.77-26.49,11.77-33.49v-11.95ZM21.44,64.03c.85,1.03,2.25,2.86,3.31,3.56.51.34.39.82,1.02,0l2.79-11.19c-1.24.84-4.03,7.15-4.67,7.52s-1.7.02-2.44.11Z"/>
    <path class="cls-2" d="M21.44,94.54c-2.16,6.35-3.66,12.46-1.55,19.09,4.77,14.95,24.21,11.14,35.11,5.83-5.67,6.94-10.13,14.65-12.46,23.39-3.4,12.77,1.02,22.53,7.88,33.05-15.13-4.76-24.82-19.11-32.76-32.07-9.11-14.89-15.24-29.79-14.53-47.76,4.52,1.58,9.41,2.12,14,.53,1.63-.56,2.73-1.63,4.3-2.06Z"/>
    <path class="cls-2" d="M65.18,168.78c5.94,4.64,12.84,10.21,20.65,11.13,8.37.99,30.02-6.84,34.05-14.66,2.49-4.83,1.92-9.92-3.73-11.58-8.2-2.41-15,3.52-18.25,10.55l-18.98-.53,11.2-11.45c1.46-.67,7.3,1.01,9.34.77,3.99-.48,9.43-5.16,15.88-5.53,15.93-.91,18.51,17.2,7.31,27.15-9.49,8.44-22.38,13.09-34.91,9.98-8.45-2.1-18.86-7.57-22.56-15.83Z"/>
    <path class="cls-2" d="M65.17,111.31c2.37-2.68,4.67-5.35,6.62-8.37,3.92-6.06,10.72-20.89,10.11-27.92-.73-8.43-8.64-14.39-16.73-15.06.33-.34,1.01-.8,1.59-1.07,5.46-2.54,12.65-1.19,16.71,3.37,12.14,13.64-2.68,43.42-18.3,49.06Z"/>
    <path class="cls-2" d="M21.44,64.03c.74-.09,1.82.25,2.44-.11s3.43-6.68,4.67-7.52l-2.79,11.19c-.63.82-.51.34-1.02,0-1.05-.7-2.46-2.53-3.31-3.56Z"/>
  </g>
  <g>
    <path class="cls-3" d="M153.66,90.46l-8.56,19.16c-8.7,14.6-22.32,27.31-39.24,31.18,6.4-6.51,12.56-13.15,17.5-20.89,8.53-13.36,12.55-25.92,11.49-41.92-.05-.76.39-1.47-.76-1.26l-8.66,7.11c-1.17,12.02-2.8,26.43-11.94,35.09.65-17.08-12.75-2.25-16.9,3.7-2.45,3.51-4.99,7.56-4.47,12.06-9.85,1.29-27.2,5.11-30.88,15.65-4.09,11.7-1.06,26.73,9.52,33.94-2.04-.04-4.93-2.03-6.88-3.29-15.03-9.78-22.8-24.34-16.25-42.21,7.96-21.73,35.75-28.29,43.11-52.5,7.02-23.1-10.03-40.83-31.83-27.76-1.16.69-4.83,3.05-4.89,4.18-.08,1.49.79,3.43.44,5.6-.76,4.71-6.25,7.89-9.11,11.23-3.17,3.71-9.58,13.93-3.58,17.27-.32,1.11-3.04.24-2.53,1.52.55,1.35,3.21,2.05,4.57,1.79-2.76,3.18-5.84.89-8.54.14-2.53-.7-5.43-.53-7.23-3.19l3.82-1.02c.61-1.03.07-2.99.29-4.29.96-5.51,7.15-6.44,6.89-14.2-.04-1.21-.97-3.07-.74-4.05.28-1.17,6.65-6.79,7.54-8.48-.53-.48-8.58,5.62-9.61,6.4-1.23.94-3.75,3.8-4.26,4.13-.68.44-3.19.57-4.61,1.24-1.9.9-3.44,2.83-4.92,4.28l-1.73-.78c-1.64,1.27-1.33,3.23-3.87,2.01-.1.83.2,1.56.49,2.31.34.9,2.3,2.88.74,3.27-2.26.56-5.99-2.9-6.32-2.52l.51,3.55c-.95.66-6.98-1.72-7.9-2.52-3.16-2.75-.33-9,2.63-11.13,1.5-1.08,4.98-3.11,6.27-4.41.72-.73.79-1.96,2.03-3.05.73-.64,2.3-1.17,2.45-1.37.3-.42,1.35-6.68,1.78-8.13,2.42-8.01,6.53-15.61,12.83-21.25.42,2.59-1.78,9.38,2.16,10.08,2.43.43,11.08-5.9,13.51-7.64,9.35-6.66,18.92-14.85,24.76-24.82l1.76,5.1c4.47,1.88,7.04-3.17,9.67-5.62,3.93-3.66,10.16-6.3,15.53-5.83-2.1,5.16-3.67,10.55-3,16.21.96,8.2,7.71,10.85,12.65,16.34,2.77,3.07,5.02,6.61,7.13,10.16-8,2.75-12.19,10.36-4.91,16.85,11.09,9.9,22.77-14.06,23.66-23.02,2.01-20.06-6.19-29.15-20.45-40.96-.45-.37-1.64-1.01-.1-.92,12.75,4.6,25.72,8.99,36.61,17.29,45.26,34.53,53.57,106.1,8.14,144.4-12.71,10.72-29.48,22.13-46.51,22.89l12.87-8.23c16.36-11.66,36.7-33.59,38.48-54.58.05-.55.37-1.9-.49-1.76-2.05,3.72-4.86,7.66-7.65,10.92-4.96,5.79-12.27,13.18-20.32,13.49,1.67-3.99,4.16-7.62,6.03-11.51,3.35-6.95,11.77-26.49,11.77-33.49v-11.95ZM21.44,64.03c.85,1.03,2.25,2.86,3.31,3.56.51.34.39.82,1.02,0l2.79-11.19c-1.24.84-4.03,7.15-4.67,7.52s-1.7.02-2.44.11Z"/>
    <path class="cls-3" d="M21.44,94.54c-2.16,6.35-3.66,12.46-1.55,19.09,4.77,14.95,24.21,11.14,35.11,5.83-5.67,6.94-10.13,14.65-12.46,23.39-3.4,12.77,1.02,22.53,7.88,33.05-15.13-4.76-24.82-19.11-32.76-32.07-9.11-14.89-15.24-29.79-14.53-47.76,4.52,1.58,9.41,2.12,14,.53,1.63-.56,2.73-1.63,4.3-2.06Z"/>
    <path class="cls-3" d="M65.18,168.78c5.94,4.64,12.84,10.21,20.65,11.13,8.37.99,30.02-6.84,34.05-14.66,2.49-4.83,1.92-9.92-3.73-11.58-8.2-2.41-15,3.52-18.25,10.55l-18.98-.53,11.2-11.45c1.46-.67,7.3,1.01,9.34.77,3.99-.48,9.43-5.16,15.88-5.53,15.93-.91,18.51,17.2,7.31,27.15-9.49,8.44-22.38,13.09-34.91,9.98-8.45-2.1-18.86-7.57-22.56-15.83Z"/>
    <path class="cls-3" d="M65.17,111.31c2.37-2.68,4.67-5.35,6.62-8.37,3.92-6.06,10.72-20.89,10.11-27.92-.73-8.43-8.64-14.39-16.73-15.06.33-.34,1.01-.8,1.59-1.07,5.46-2.54,12.65-1.19,16.71,3.37,12.14,13.64-2.68,43.42-18.3,49.06Z"/>
    <path class="cls-1" d="M21.44,64.03c.74-.09,1.82.25,2.44-.11s3.43-6.68,4.67-7.52l-2.79,11.19c-.63.82-.51.34-1.02,0-1.05-.7-2.46-2.53-3.31-3.56Z"/>
  </g>
</svg>