<?xml version="1.0" encoding="UTF-8"?>
<svg id="Layer_1" data-name="Layer 1" xmlns="http://www.w3.org/2000/svg" viewBox="0 0 829.55 822.92">
  <defs>
    <style>
      .cls-1 {
        stroke-width: 7px;
      }

      .cls-1, .cls-2, .cls-3, .cls-4 {
        stroke-miterlimit: 10;
      }

      .cls-1, .cls-3, .cls-4 {
        stroke: #231f20;
      }

      .cls-1, .cls-4 {
        fill: #b62eef;
      }

      .cls-2 {
        stroke: #fff;
        stroke-width: 30px;
      }

      .cls-2, .cls-3 {
        fill: #fff;
      }

      .cls-3 {
        stroke-width: 3px;
      }

      .cls-4 {
        stroke-width: 10px;
      }
    </style>
  </defs>
  <g>
    <path class="cls-2" d="M660.14,389.55l-36.65,82.04c-37.26,62.54-95.58,116.95-168.05,133.53,27.41-27.89,53.8-56.33,74.94-89.44,36.54-57.23,53.75-110.99,49.19-179.51-.22-3.25,1.66-6.29-3.25-5.39l-37.07,30.45c-5.01,51.49-11.98,113.16-51.13,150.28,2.77-73.15-54.59-9.62-72.37,15.85-10.5,15.05-21.37,32.37-19.13,51.65-42.16,5.53-116.47,21.88-132.23,67.02-17.5,50.11-4.55,114.47,40.77,145.32-8.72-.19-21.12-8.69-29.45-14.1-64.38-41.88-97.62-104.23-69.59-180.77,34.08-93.04,153.1-121.16,184.59-224.81,30.04-98.91-42.94-174.86-136.28-118.86-4.95,2.97-20.69,13.07-20.95,17.91-.35,6.39,3.36,14.68,1.87,24-3.24,20.17-26.76,33.78-38.99,48.1-13.6,15.9-41.03,59.64-15.35,73.97-1.38,4.75-13.04,1.04-10.83,6.5,2.34,5.77,13.73,8.79,19.58,7.67-11.84,13.6-25.01,3.8-36.57.61-10.85-2.99-23.25-2.25-30.94-13.68l16.36-4.35c2.61-4.42.28-12.82,1.25-18.35,4.1-23.61,30.6-27.59,29.49-60.82-.17-5.2-4.17-13.16-3.19-17.33,1.18-5.02,28.46-29.08,32.31-36.33-2.26-2.04-36.72,24.05-41.15,27.42-5.29,4.03-16.08,16.29-18.23,17.69-2.93,1.9-13.68,2.44-19.74,5.31-8.14,3.86-14.73,12.11-21.05,18.31l-7.39-3.33c-7.03,5.45-5.68,13.83-16.55,8.62-.45,3.54.86,6.67,2.08,9.88,1.47,3.87,9.85,12.33,3.19,14-9.67,2.42-25.64-12.43-27.05-10.8l2.16,15.21c-4.07,2.82-29.9-7.38-33.82-10.8-13.53-11.79-1.41-38.54,11.26-47.67,6.42-4.62,21.31-13.32,26.84-18.89,3.09-3.11,3.39-8.4,8.7-13.07,3.11-2.73,9.85-4.99,10.49-5.86,1.3-1.78,5.76-28.62,7.63-34.82,10.37-34.32,27.98-66.84,54.92-90.98,1.8,11.08-7.63,40.17,9.23,43.18,10.4,1.86,47.43-25.28,57.86-32.71,40.03-28.51,81.01-63.59,106.05-106.28l7.52,21.82c19.15,8.05,30.15-13.59,41.39-24.08,16.81-15.69,43.52-26.97,66.51-24.95-8.99,22.1-15.7,45.18-12.86,69.42,4.11,35.1,33,46.48,54.15,69.98,11.85,13.16,21.52,28.3,30.52,43.52-34.27,11.77-52.18,44.34-21.01,72.17,47.48,42.38,97.49-60.2,101.34-98.59,8.6-85.88-26.5-124.84-87.56-175.4-1.93-1.6-7.03-4.31-.42-3.95,54.61,19.68,110.16,38.49,156.78,74.06,193.83,147.86,229.42,454.33,34.85,618.33-54.44,45.89-126.23,94.78-199.19,98.03l55.12-35.22c70.06-49.94,157.16-143.84,164.78-233.74.2-2.37,1.6-8.12-2.12-7.55-8.78,15.93-20.82,32.81-32.75,46.74-21.25,24.81-52.56,56.45-87.04,57.75,7.16-17.1,17.79-32.65,25.81-49.29,14.33-29.76,50.4-113.43,50.4-143.41v-51.17ZM93.95,276.33c3.63,4.42,9.65,12.26,14.15,15.23,2.2,1.46,1.66,3.5,4.38,0l11.93-47.92c-5.31,3.59-17.25,30.62-20.01,32.2s-7.29.08-10.46.48Z"/>
    <path class="cls-2" d="M93.94,406.98c-9.25,27.21-15.68,53.38-6.64,81.76,20.41,64.04,103.66,47.72,150.37,24.95-24.3,29.73-43.36,62.72-53.34,100.16-14.57,54.68,4.36,96.47,33.74,141.51-64.8-20.39-106.3-81.83-140.28-137.35-39.02-63.76-65.25-127.59-62.22-204.52,19.37,6.77,40.28,9.1,59.97,2.28,6.97-2.41,11.68-7,18.39-8.81Z"/>
    <path class="cls-2" d="M281.25,724.9c25.44,19.85,54.99,43.72,88.41,47.67,35.82,4.24,128.54-29.31,145.8-62.79,10.66-20.68,8.22-42.48-15.99-49.6-35.09-10.33-64.24,15.09-78.15,45.2l-81.29-2.28,47.97-49.04c6.24-2.86,31.25,4.34,40.01,3.29,17.1-2.05,40.37-22.08,68.02-23.66,68.21-3.9,79.27,73.63,31.3,116.27-40.64,36.12-95.84,56.04-149.47,42.72-36.17-8.98-80.75-32.42-96.6-67.79Z"/>
    <path class="cls-2" d="M281.23,478.81c10.13-11.5,19.98-22.92,28.35-35.86,16.81-25.97,45.91-89.46,43.3-119.56-3.13-36.09-37.01-61.62-71.66-64.5,1.42-1.46,4.33-3.42,6.82-4.58,23.37-10.89,54.16-5.08,71.54,14.44,52,58.39-11.46,185.92-78.35,210.08Z"/>
    <path class="cls-2" d="M93.95,276.33c3.17-.39,7.78,1.05,10.46-.48s14.69-28.6,20.01-32.2l-11.93,47.92c-2.72,3.49-2.18,1.45-4.38,0-4.5-2.98-10.53-10.82-14.15-15.23Z"/>
  </g>
  <g>
    <path class="cls-4" d="M660.14,389.55l-36.65,82.04c-37.26,62.54-95.58,116.95-168.05,133.53,27.41-27.89,53.8-56.33,74.94-89.44,36.54-57.23,53.75-110.99,49.19-179.51-.22-3.25,1.66-6.29-3.25-5.39l-37.07,30.45c-5.01,51.49-11.98,113.16-51.13,150.28,2.77-73.15-54.59-9.62-72.37,15.85-10.5,15.05-21.37,32.37-19.13,51.65-42.16,5.53-116.47,21.88-132.23,67.02-17.5,50.11-4.55,114.47,40.77,145.32-8.72-.19-21.12-8.69-29.45-14.1-64.38-41.88-97.62-104.23-69.59-180.77,34.08-93.04,153.1-121.16,184.59-224.81,30.04-98.91-42.94-174.86-136.28-118.86-4.95,2.97-20.69,13.07-20.95,17.91-.35,6.39,3.36,14.68,1.87,24-3.24,20.17-26.76,33.78-38.99,48.1-13.6,15.9-41.03,59.64-15.35,73.97-1.38,4.75-13.04,1.04-10.83,6.5,2.34,5.77,13.73,8.79,19.58,7.67-11.84,13.6-25.01,3.8-36.57.61-10.85-2.99-23.25-2.25-30.94-13.68l16.36-4.35c2.61-4.42.28-12.82,1.25-18.35,4.1-23.61,30.6-27.59,29.49-60.82-.17-5.2-4.17-13.16-3.19-17.33,1.18-5.02,28.46-29.08,32.31-36.33-2.26-2.04-36.72,24.05-41.15,27.42-5.29,4.03-16.08,16.29-18.23,17.69-2.93,1.9-13.68,2.44-19.74,5.31-8.14,3.86-14.73,12.11-21.05,18.31l-7.39-3.33c-7.03,5.45-5.68,13.83-16.55,8.62-.45,3.54.86,6.67,2.08,9.88,1.47,3.87,9.85,12.33,3.19,14-9.67,2.42-25.64-12.43-27.05-10.8l2.16,15.21c-4.07,2.82-29.9-7.38-33.82-10.8-13.53-11.79-1.41-38.54,11.26-47.67,6.42-4.62,21.31-13.32,26.84-18.89,3.09-3.11,3.39-8.4,8.7-13.07,3.11-2.73,9.85-4.99,10.49-5.86,1.3-1.78,5.76-28.62,7.63-34.82,10.37-34.32,27.98-66.84,54.92-90.98,1.8,11.08-7.63,40.17,9.23,43.18,10.4,1.86,47.43-25.28,57.86-32.71,40.03-28.51,81.01-63.59,106.05-106.28l7.52,21.82c19.15,8.05,30.15-13.59,41.39-24.08,16.81-15.69,43.52-26.97,66.51-24.95-8.99,22.1-15.7,45.18-12.86,69.42,4.11,35.1,33,46.48,54.15,69.98,11.85,13.16,21.52,28.3,30.52,43.52-34.27,11.77-52.18,44.34-21.01,72.17,47.48,42.38,97.49-60.2,101.34-98.59,8.6-85.88-26.5-124.84-87.56-175.4-1.93-1.6-7.03-4.31-.42-3.95,54.61,19.68,110.16,38.49,156.78,74.06,193.83,147.86,229.42,454.33,34.85,618.33-54.44,45.89-126.23,94.78-199.19,98.03l55.12-35.22c70.06-49.94,157.16-143.84,164.78-233.74.2-2.37,1.6-8.12-2.12-7.55-8.78,15.93-20.82,32.81-32.75,46.74-21.25,24.81-52.56,56.45-87.04,57.75,7.16-17.1,17.79-32.65,25.81-49.29,14.33-29.76,50.4-113.43,50.4-143.41v-51.17ZM93.95,276.33c3.63,4.42,9.65,12.26,14.15,15.23,2.2,1.46,1.66,3.5,4.38,0l11.93-47.92c-5.31,3.59-17.25,30.62-20.01,32.2s-7.29.08-10.46.48Z"/>
    <path class="cls-4" d="M93.94,406.98c-9.25,27.21-15.68,53.38-6.64,81.76,20.41,64.04,103.66,47.72,150.37,24.95-24.3,29.73-43.36,62.72-53.34,100.16-14.57,54.68,4.36,96.47,33.74,141.51-64.8-20.39-106.3-81.83-140.28-137.35-39.02-63.76-65.25-127.59-62.22-204.52,19.37,6.77,40.28,9.1,59.97,2.28,6.97-2.41,11.68-7,18.39-8.81Z"/>
    <path class="cls-4" d="M281.25,724.9c25.44,19.85,54.99,43.72,88.41,47.67,35.82,4.24,128.54-29.31,145.8-62.79,10.66-20.68,8.22-42.48-15.99-49.6-35.09-10.33-64.24,15.09-78.15,45.2l-81.29-2.28,47.97-49.04c6.24-2.86,31.25,4.34,40.01,3.29,17.1-2.05,40.37-22.08,68.02-23.66,68.21-3.9,79.27,73.63,31.3,116.27-40.64,36.12-95.84,56.04-149.47,42.72-36.17-8.98-80.75-32.42-96.6-67.79Z"/>
    <path class="cls-1" d="M281.23,478.81c10.13-11.5,19.98-22.92,28.35-35.86,16.81-25.97,45.91-89.46,43.3-119.56-3.13-36.09-37.01-61.62-71.66-64.5,1.42-1.46,4.33-3.42,6.82-4.58,23.37-10.89,54.16-5.08,71.54,14.44,52,58.39-11.46,185.92-78.35,210.08Z"/>
    <path class="cls-3" d="M93.95,276.33c3.17-.39,7.78,1.05,10.46-.48s14.69-28.6,20.01-32.2l-11.93,47.92c-2.72,3.49-2.18,1.45-4.38,0-4.5-2.98-10.53-10.82-14.15-15.23Z"/>
  </g>
</svg>